<mxfile host="Electron" agent="Mozilla/5.0 (Windows NT 10.0; Win64; x64) AppleWebKit/537.36 (KHTML, like Gecko) draw.io/26.2.2 Chrome/134.0.6998.178 Electron/35.1.2 Safari/537.36" version="26.2.2">
  <diagram id="prtHgNgQTEPvFCAcTncT" name="Page-1">
    <mxGraphModel dx="1428" dy="841" grid="1" gridSize="10" guides="1" tooltips="1" connect="1" arrows="1" fold="1" page="1" pageScale="1" pageWidth="1169" pageHeight="827" math="0" shadow="0">
      <root>
        <mxCell id="0" />
        <mxCell id="1" parent="0" />
        <mxCell id="dNxyNK7c78bLwvsdeMH5-19" value="&lt;font style=&quot;color: rgb(237, 125, 49);&quot;&gt;Online Appointment Booking V1.0&lt;/font&gt;" style="swimlane;html=1;childLayout=stackLayout;resizeParent=1;resizeParentMax=0;horizontal=0;startSize=20;horizontalStack=0;strokeColor=light-dark(#ED7D31,#EDEDED);strokeWidth=2;container=0;movable=1;resizable=1;rotatable=1;deletable=1;editable=1;locked=0;connectable=1;" parent="1" vertex="1">
          <mxGeometry x="40" y="120" width="800" height="690" as="geometry">
            <mxRectangle x="120" y="120" width="40" height="50" as="alternateBounds" />
          </mxGeometry>
        </mxCell>
        <mxCell id="dNxyNK7c78bLwvsdeMH5-20" value="&lt;font style=&quot;color: rgb(237, 125, 49);&quot;&gt;Doctor&lt;/font&gt;" style="swimlane;html=1;startSize=20;horizontal=0;strokeColor=#ED7D31;strokeWidth=2;" parent="1" vertex="1">
          <mxGeometry x="60" y="120" width="780" height="130" as="geometry" />
        </mxCell>
        <mxCell id="c4G1HvapONVKOLHda4lt-110" style="edgeStyle=orthogonalEdgeStyle;rounded=0;orthogonalLoop=1;jettySize=auto;html=1;entryX=0;entryY=0.5;entryDx=0;entryDy=0;" edge="1" parent="dNxyNK7c78bLwvsdeMH5-20" source="dNxyNK7c78bLwvsdeMH5-23" target="dNxyNK7c78bLwvsdeMH5-24">
          <mxGeometry relative="1" as="geometry">
            <Array as="points">
              <mxPoint x="60" y="92" />
            </Array>
          </mxGeometry>
        </mxCell>
        <mxCell id="c4G1HvapONVKOLHda4lt-111" style="edgeStyle=orthogonalEdgeStyle;rounded=0;orthogonalLoop=1;jettySize=auto;html=1;entryX=0;entryY=0.5;entryDx=0;entryDy=0;" edge="1" parent="dNxyNK7c78bLwvsdeMH5-20" source="dNxyNK7c78bLwvsdeMH5-23" target="c4G1HvapONVKOLHda4lt-109">
          <mxGeometry relative="1" as="geometry" />
        </mxCell>
        <mxCell id="dNxyNK7c78bLwvsdeMH5-23" value="" style="ellipse;whiteSpace=wrap;html=1;fillColor=#008a00;fontColor=#ffffff;strokeColor=#005700;" parent="dNxyNK7c78bLwvsdeMH5-20" vertex="1">
          <mxGeometry x="40" y="22" width="40" height="40" as="geometry" />
        </mxCell>
        <mxCell id="dNxyNK7c78bLwvsdeMH5-24" value="&lt;font style=&quot;font-size: 14px;&quot; face=&quot;Verdana&quot;&gt;Schedule&lt;/font&gt;&lt;div&gt;&lt;font style=&quot;font-size: 14px;&quot; face=&quot;Verdana&quot;&gt;Availability&lt;/font&gt;&lt;/div&gt;" style="rounded=1;whiteSpace=wrap;html=1;fontFamily=Helvetica;fontSize=12;align=center;fillColor=#1ba1e2;strokeColor=#006EAF;fontColor=#ffffff;" parent="dNxyNK7c78bLwvsdeMH5-20" vertex="1">
          <mxGeometry x="100" y="62" width="100" height="60" as="geometry" />
        </mxCell>
        <mxCell id="c4G1HvapONVKOLHda4lt-1" value="&lt;font face=&quot;Verdana&quot;&gt;Save&lt;/font&gt;" style="ellipse;whiteSpace=wrap;html=1;fillColor=#e3c800;fontColor=#000000;strokeColor=#B09500;fillStyle=auto;" vertex="1" parent="dNxyNK7c78bLwvsdeMH5-20">
          <mxGeometry x="220" y="77" width="30" height="30" as="geometry" />
        </mxCell>
        <mxCell id="c4G1HvapONVKOLHda4lt-4" value="" style="endArrow=classic;html=1;rounded=0;exitX=1;exitY=0.5;exitDx=0;exitDy=0;entryX=0;entryY=0.5;entryDx=0;entryDy=0;" edge="1" parent="dNxyNK7c78bLwvsdeMH5-20" source="dNxyNK7c78bLwvsdeMH5-24" target="c4G1HvapONVKOLHda4lt-1">
          <mxGeometry width="50" height="50" relative="1" as="geometry">
            <mxPoint x="310" y="120" as="sourcePoint" />
            <mxPoint x="360" y="70" as="targetPoint" />
          </mxGeometry>
        </mxCell>
        <mxCell id="c4G1HvapONVKOLHda4lt-116" style="edgeStyle=orthogonalEdgeStyle;rounded=0;orthogonalLoop=1;jettySize=auto;html=1;" edge="1" parent="dNxyNK7c78bLwvsdeMH5-20" source="c4G1HvapONVKOLHda4lt-109" target="c4G1HvapONVKOLHda4lt-113">
          <mxGeometry relative="1" as="geometry">
            <mxPoint x="500" y="42" as="targetPoint" />
          </mxGeometry>
        </mxCell>
        <mxCell id="c4G1HvapONVKOLHda4lt-109" value="&lt;font style=&quot;color: rgb(0, 0, 0);&quot; face=&quot;Verdana&quot;&gt;&lt;span style=&quot;font-size: 14px;&quot;&gt;Appointment Report&lt;/span&gt;&lt;/font&gt;" style="rounded=1;whiteSpace=wrap;html=1;fontFamily=Helvetica;fontSize=12;align=center;fillColor=#dae8fc;strokeColor=#6c8ebf;gradientColor=#7ea6e0;" vertex="1" parent="dNxyNK7c78bLwvsdeMH5-20">
          <mxGeometry x="260" y="11" width="158" height="62" as="geometry" />
        </mxCell>
        <mxCell id="c4G1HvapONVKOLHda4lt-113" value="" style="ellipse;whiteSpace=wrap;html=1;fillColor=#e51400;fontColor=#FFFFFF;strokeColor=#B20000;strokeWidth=3;" vertex="1" parent="dNxyNK7c78bLwvsdeMH5-20">
          <mxGeometry x="505" y="22" width="40" height="40" as="geometry" />
        </mxCell>
        <mxCell id="dNxyNK7c78bLwvsdeMH5-21" value="&lt;font style=&quot;color: rgb(237, 125, 49);&quot;&gt;Staff&lt;/font&gt;" style="swimlane;html=1;startSize=20;horizontal=0;strokeColor=#ED7D31;strokeWidth=2;" parent="1" vertex="1">
          <mxGeometry x="60" y="250" width="780" height="100" as="geometry" />
        </mxCell>
        <mxCell id="c4G1HvapONVKOLHda4lt-5" value="&lt;font face=&quot;Verdana&quot;&gt;Availability Received&lt;/font&gt;" style="ellipse;whiteSpace=wrap;html=1;fillColor=#e3c800;fontColor=#000000;strokeColor=#B09500;fillStyle=auto;" vertex="1" parent="dNxyNK7c78bLwvsdeMH5-21">
          <mxGeometry x="200" y="10" width="70" height="50" as="geometry" />
        </mxCell>
        <mxCell id="c4G1HvapONVKOLHda4lt-7" value="&lt;font style=&quot;font-size: 14px;&quot; face=&quot;Verdana&quot;&gt;Create&lt;/font&gt;&lt;div&gt;&lt;font style=&quot;font-size: 14px;&quot; face=&quot;Verdana&quot;&gt;Schedule&lt;/font&gt;&lt;/div&gt;" style="rounded=1;whiteSpace=wrap;html=1;fontFamily=Helvetica;fontSize=12;align=center;fillColor=#1ba1e2;strokeColor=#006EAF;fontColor=#ffffff;" vertex="1" parent="dNxyNK7c78bLwvsdeMH5-21">
          <mxGeometry x="300" y="5" width="100" height="60" as="geometry" />
        </mxCell>
        <mxCell id="c4G1HvapONVKOLHda4lt-8" value="" style="endArrow=classic;html=1;rounded=0;entryX=0;entryY=0.5;entryDx=0;entryDy=0;exitX=1;exitY=0.5;exitDx=0;exitDy=0;" edge="1" parent="dNxyNK7c78bLwvsdeMH5-21" source="c4G1HvapONVKOLHda4lt-5" target="c4G1HvapONVKOLHda4lt-7">
          <mxGeometry width="50" height="50" relative="1" as="geometry">
            <mxPoint x="170" y="139" as="sourcePoint" />
            <mxPoint x="220" y="89" as="targetPoint" />
          </mxGeometry>
        </mxCell>
        <mxCell id="c4G1HvapONVKOLHda4lt-16" value="" style="endArrow=classic;html=1;rounded=0;entryX=0;entryY=0;entryDx=0;entryDy=0;exitX=1;exitY=0.25;exitDx=0;exitDy=0;" edge="1" parent="dNxyNK7c78bLwvsdeMH5-21" source="c4G1HvapONVKOLHda4lt-7" target="c4G1HvapONVKOLHda4lt-123">
          <mxGeometry width="50" height="50" relative="1" as="geometry">
            <mxPoint x="410" y="30" as="sourcePoint" />
            <mxPoint x="420" y="35" as="targetPoint" />
            <Array as="points" />
          </mxGeometry>
        </mxCell>
        <mxCell id="c4G1HvapONVKOLHda4lt-124" style="edgeStyle=orthogonalEdgeStyle;rounded=0;orthogonalLoop=1;jettySize=auto;html=1;entryX=0.5;entryY=1;entryDx=0;entryDy=0;" edge="1" parent="dNxyNK7c78bLwvsdeMH5-21" source="c4G1HvapONVKOLHda4lt-117" target="c4G1HvapONVKOLHda4lt-123">
          <mxGeometry relative="1" as="geometry">
            <Array as="points">
              <mxPoint x="720" y="65" />
            </Array>
          </mxGeometry>
        </mxCell>
        <mxCell id="c4G1HvapONVKOLHda4lt-117" value="&lt;font style=&quot;color: rgb(0, 0, 0);&quot; face=&quot;Verdana&quot;&gt;&lt;span style=&quot;font-size: 14px;&quot;&gt;Appointment Report&lt;/span&gt;&lt;/font&gt;" style="rounded=1;whiteSpace=wrap;html=1;fontFamily=Helvetica;fontSize=12;align=center;fillColor=#dae8fc;strokeColor=#6c8ebf;gradientColor=#7ea6e0;" vertex="1" parent="dNxyNK7c78bLwvsdeMH5-21">
          <mxGeometry x="480" y="34" width="158" height="62" as="geometry" />
        </mxCell>
        <mxCell id="c4G1HvapONVKOLHda4lt-119" style="edgeStyle=orthogonalEdgeStyle;rounded=0;orthogonalLoop=1;jettySize=auto;html=1;entryX=-0.019;entryY=0.613;entryDx=0;entryDy=0;entryPerimeter=0;" edge="1" parent="dNxyNK7c78bLwvsdeMH5-21" source="c4G1HvapONVKOLHda4lt-118" target="c4G1HvapONVKOLHda4lt-117">
          <mxGeometry relative="1" as="geometry" />
        </mxCell>
        <mxCell id="c4G1HvapONVKOLHda4lt-118" value="" style="ellipse;whiteSpace=wrap;html=1;fillColor=#008a00;fontColor=#ffffff;strokeColor=#005700;" vertex="1" parent="dNxyNK7c78bLwvsdeMH5-21">
          <mxGeometry x="38" y="52" width="40" height="40" as="geometry" />
        </mxCell>
        <mxCell id="c4G1HvapONVKOLHda4lt-123" value="" style="ellipse;whiteSpace=wrap;html=1;fillColor=#e51400;fontColor=#FFFFFF;strokeColor=#B20000;strokeWidth=3;" vertex="1" parent="dNxyNK7c78bLwvsdeMH5-21">
          <mxGeometry x="700" y="13" width="40" height="40" as="geometry" />
        </mxCell>
        <mxCell id="dNxyNK7c78bLwvsdeMH5-22" value="&lt;font style=&quot;color: rgb(237, 125, 49);&quot;&gt;Patient&lt;/font&gt;" style="swimlane;html=1;startSize=20;horizontal=0;strokeColor=#ED7D31;strokeWidth=2;" parent="1" vertex="1">
          <mxGeometry x="60" y="350" width="780" height="180" as="geometry" />
        </mxCell>
        <mxCell id="c4G1HvapONVKOLHda4lt-17" value="" style="ellipse;whiteSpace=wrap;html=1;fillColor=#008a00;fontColor=#ffffff;strokeColor=#005700;" vertex="1" parent="dNxyNK7c78bLwvsdeMH5-22">
          <mxGeometry x="34" y="66" width="40" height="40" as="geometry" />
        </mxCell>
        <mxCell id="c4G1HvapONVKOLHda4lt-18" value="&lt;font face=&quot;Verdana&quot;&gt;&lt;span style=&quot;font-size: 14px;&quot;&gt;Schedule Appointment&lt;/span&gt;&lt;/font&gt;" style="rounded=1;whiteSpace=wrap;html=1;fontFamily=Helvetica;fontSize=12;align=center;fillColor=#1ba1e2;strokeColor=#006EAF;fontColor=#ffffff;" vertex="1" parent="dNxyNK7c78bLwvsdeMH5-22">
          <mxGeometry x="70" y="120" width="100" height="40" as="geometry" />
        </mxCell>
        <mxCell id="c4G1HvapONVKOLHda4lt-19" value="" style="endArrow=classic;html=1;rounded=0;exitX=1;exitY=1;exitDx=0;exitDy=0;entryX=0.5;entryY=0;entryDx=0;entryDy=0;" edge="1" parent="dNxyNK7c78bLwvsdeMH5-22" source="c4G1HvapONVKOLHda4lt-17" target="c4G1HvapONVKOLHda4lt-32">
          <mxGeometry width="50" height="50" relative="1" as="geometry">
            <mxPoint x="300" y="100" as="sourcePoint" />
            <mxPoint x="290" y="100" as="targetPoint" />
            <Array as="points">
              <mxPoint x="240" y="100" />
            </Array>
          </mxGeometry>
        </mxCell>
        <mxCell id="c4G1HvapONVKOLHda4lt-32" value="&lt;font face=&quot;Verdana&quot;&gt;&lt;span style=&quot;font-size: 14px;&quot;&gt;Reschedule Appointment&lt;/span&gt;&lt;/font&gt;" style="rounded=1;whiteSpace=wrap;html=1;fontFamily=Helvetica;fontSize=12;align=center;fillColor=#FAD7AC;strokeColor=#b46504;" vertex="1" parent="dNxyNK7c78bLwvsdeMH5-22">
          <mxGeometry x="190" y="120" width="100" height="40" as="geometry" />
        </mxCell>
        <mxCell id="c4G1HvapONVKOLHda4lt-34" value="" style="endArrow=classic;html=1;rounded=0;exitX=1;exitY=0.5;exitDx=0;exitDy=0;entryX=0.5;entryY=0;entryDx=0;entryDy=0;" edge="1" parent="dNxyNK7c78bLwvsdeMH5-22" source="c4G1HvapONVKOLHda4lt-17" target="c4G1HvapONVKOLHda4lt-33">
          <mxGeometry width="50" height="50" relative="1" as="geometry">
            <mxPoint x="95" y="87" as="sourcePoint" />
            <mxPoint x="380" y="100" as="targetPoint" />
            <Array as="points">
              <mxPoint x="360" y="86" />
            </Array>
          </mxGeometry>
        </mxCell>
        <mxCell id="c4G1HvapONVKOLHda4lt-35" value="" style="endArrow=classic;html=1;rounded=0;exitX=1;exitY=0;exitDx=0;exitDy=0;entryX=0.5;entryY=0;entryDx=0;entryDy=0;" edge="1" parent="dNxyNK7c78bLwvsdeMH5-22" source="c4G1HvapONVKOLHda4lt-17" target="c4G1HvapONVKOLHda4lt-46">
          <mxGeometry width="50" height="50" relative="1" as="geometry">
            <mxPoint x="96" y="84" as="sourcePoint" />
            <mxPoint x="470" y="110" as="targetPoint" />
            <Array as="points">
              <mxPoint x="480" y="72" />
            </Array>
          </mxGeometry>
        </mxCell>
        <mxCell id="c4G1HvapONVKOLHda4lt-36" value="&lt;font face=&quot;Verdana&quot;&gt;&lt;span style=&quot;font-size: 14px;&quot;&gt;View History&lt;/span&gt;&lt;/font&gt;" style="rounded=1;whiteSpace=wrap;html=1;fontFamily=Helvetica;fontSize=12;align=center;fillColor=#f8cecc;strokeColor=#b85450;gradientColor=#ea6b66;" vertex="1" parent="dNxyNK7c78bLwvsdeMH5-22">
          <mxGeometry x="180" y="20" width="100" height="40" as="geometry" />
        </mxCell>
        <mxCell id="c4G1HvapONVKOLHda4lt-37" value="" style="endArrow=classic;html=1;rounded=0;entryX=0;entryY=0.5;entryDx=0;entryDy=0;exitX=0.5;exitY=0;exitDx=0;exitDy=0;" edge="1" parent="dNxyNK7c78bLwvsdeMH5-22" source="c4G1HvapONVKOLHda4lt-17" target="c4G1HvapONVKOLHda4lt-36">
          <mxGeometry width="50" height="50" relative="1" as="geometry">
            <mxPoint x="70" y="70" as="sourcePoint" />
            <mxPoint x="120" y="20" as="targetPoint" />
            <Array as="points">
              <mxPoint x="54" y="40" />
            </Array>
          </mxGeometry>
        </mxCell>
        <mxCell id="c4G1HvapONVKOLHda4lt-39" value="&lt;font face=&quot;Verdana&quot;&gt;Appointment History&lt;/font&gt;" style="rounded=1;whiteSpace=wrap;html=1;strokeColor=#82b366;fillColor=#d5e8d4;gradientColor=#97d077;" vertex="1" parent="dNxyNK7c78bLwvsdeMH5-22">
          <mxGeometry x="559" y="55" width="81" height="60" as="geometry" />
        </mxCell>
        <mxCell id="c4G1HvapONVKOLHda4lt-46" value="&lt;span style=&quot;font-family: Verdana;&quot;&gt;&lt;font style=&quot;font-size: 14px;&quot;&gt;Create Profile&lt;/font&gt;&lt;/span&gt;" style="rounded=1;whiteSpace=wrap;html=1;fontFamily=Helvetica;fontSize=12;align=center;fillColor=#647687;strokeColor=#314354;fontColor=#ffffff;" vertex="1" parent="dNxyNK7c78bLwvsdeMH5-22">
          <mxGeometry x="430" y="120" width="100" height="40" as="geometry" />
        </mxCell>
        <mxCell id="c4G1HvapONVKOLHda4lt-48" value="" style="endArrow=classic;html=1;rounded=0;exitX=0.5;exitY=1;exitDx=0;exitDy=0;entryX=0;entryY=0.5;entryDx=0;entryDy=0;" edge="1" parent="dNxyNK7c78bLwvsdeMH5-22" source="c4G1HvapONVKOLHda4lt-17" target="c4G1HvapONVKOLHda4lt-18">
          <mxGeometry width="50" height="50" relative="1" as="geometry">
            <mxPoint x="50" y="160" as="sourcePoint" />
            <mxPoint x="40" y="150" as="targetPoint" />
            <Array as="points">
              <mxPoint x="54" y="140" />
            </Array>
          </mxGeometry>
        </mxCell>
        <mxCell id="c4G1HvapONVKOLHda4lt-33" value="&lt;font face=&quot;Verdana&quot;&gt;&lt;span style=&quot;font-size: 14px;&quot;&gt;Cancel Appointment&lt;/span&gt;&lt;/font&gt;" style="rounded=1;whiteSpace=wrap;html=1;fontFamily=Helvetica;fontSize=12;align=center;fillColor=#f8cecc;strokeColor=#b85450;gradientColor=#ea6b66;" vertex="1" parent="dNxyNK7c78bLwvsdeMH5-22">
          <mxGeometry x="310" y="120" width="100" height="40" as="geometry" />
        </mxCell>
        <mxCell id="c4G1HvapONVKOLHda4lt-58" value="" style="ellipse;whiteSpace=wrap;html=1;fillColor=#E51400;fontColor=#FFFFFF;strokeColor=#B20000;strokeWidth=3;" vertex="1" parent="dNxyNK7c78bLwvsdeMH5-22">
          <mxGeometry x="730" y="65" width="40" height="40" as="geometry" />
        </mxCell>
        <mxCell id="c4G1HvapONVKOLHda4lt-59" value="" style="ellipse;whiteSpace=wrap;html=1;fillColor=none;fontColor=#ffffff;strokeColor=#ED7D31;strokeWidth=3;" vertex="1" parent="dNxyNK7c78bLwvsdeMH5-22">
          <mxGeometry x="670" y="65" width="40" height="40" as="geometry" />
        </mxCell>
        <mxCell id="c4G1HvapONVKOLHda4lt-61" value="" style="shape=message;html=1;html=1;outlineConnect=0;labelPosition=center;verticalLabelPosition=bottom;align=center;verticalAlign=top;strokeColor=#ED7D31;strokeWidth=2;" vertex="1" parent="dNxyNK7c78bLwvsdeMH5-22">
          <mxGeometry x="678" y="78" width="25" height="15" as="geometry" />
        </mxCell>
        <mxCell id="c4G1HvapONVKOLHda4lt-65" value="" style="endArrow=classic;html=1;rounded=0;entryX=0;entryY=0.5;entryDx=0;entryDy=0;exitX=1;exitY=0.5;exitDx=0;exitDy=0;" edge="1" parent="dNxyNK7c78bLwvsdeMH5-22" source="c4G1HvapONVKOLHda4lt-59" target="c4G1HvapONVKOLHda4lt-58">
          <mxGeometry width="50" height="50" relative="1" as="geometry">
            <mxPoint x="700" y="170" as="sourcePoint" />
            <mxPoint x="750" y="120" as="targetPoint" />
          </mxGeometry>
        </mxCell>
        <mxCell id="c4G1HvapONVKOLHda4lt-6" value="" style="endArrow=none;html=1;rounded=0;entryX=0.5;entryY=1;entryDx=0;entryDy=0;exitX=0.5;exitY=0;exitDx=0;exitDy=0;" edge="1" parent="1" source="c4G1HvapONVKOLHda4lt-5" target="c4G1HvapONVKOLHda4lt-1">
          <mxGeometry width="50" height="50" relative="1" as="geometry">
            <mxPoint x="270" y="350" as="sourcePoint" />
            <mxPoint x="320" y="300" as="targetPoint" />
          </mxGeometry>
        </mxCell>
        <mxCell id="c4G1HvapONVKOLHda4lt-22" value="&lt;font style=&quot;color: rgb(237, 125, 49);&quot;&gt;System&lt;/font&gt;" style="swimlane;html=1;startSize=20;horizontal=0;strokeColor=#ED7D31;strokeWidth=2;" vertex="1" parent="1">
          <mxGeometry x="60" y="530" width="780" height="110" as="geometry" />
        </mxCell>
        <mxCell id="c4G1HvapONVKOLHda4lt-28" value="" style="rhombus;whiteSpace=wrap;html=1;strokeColor=#B20000;strokeWidth=2;fillColor=#e51400;fontColor=#ffffff;" vertex="1" parent="c4G1HvapONVKOLHda4lt-22">
          <mxGeometry x="522" y="18" width="50" height="50" as="geometry" />
        </mxCell>
        <mxCell id="c4G1HvapONVKOLHda4lt-57" value="Process Request" style="strokeWidth=2;html=1;shape=mxgraph.flowchart.multi-document;whiteSpace=wrap;fillColor=#e51400;fontColor=#ffffff;strokeColor=#B20000;" vertex="1" parent="c4G1HvapONVKOLHda4lt-22">
          <mxGeometry x="185" y="38" width="80" height="53" as="geometry" />
        </mxCell>
        <mxCell id="c4G1HvapONVKOLHda4lt-62" value="&lt;span style=&quot;font-family: Verdana;&quot;&gt;&lt;font style=&quot;font-size: 14px;&quot;&gt;Notification&lt;/font&gt;&lt;/span&gt;" style="rounded=1;whiteSpace=wrap;html=1;fontFamily=Helvetica;fontSize=12;align=center;fillColor=#647687;strokeColor=#314354;fontColor=#ffffff;" vertex="1" parent="c4G1HvapONVKOLHda4lt-22">
          <mxGeometry x="640" y="50" width="100" height="40" as="geometry" />
        </mxCell>
        <mxCell id="c4G1HvapONVKOLHda4lt-63" value="" style="endArrow=classic;html=1;rounded=0;exitX=0.95;exitY=0.642;exitDx=0;exitDy=0;exitPerimeter=0;entryX=0;entryY=0.5;entryDx=0;entryDy=0;" edge="1" parent="c4G1HvapONVKOLHda4lt-22" source="c4G1HvapONVKOLHda4lt-57" target="c4G1HvapONVKOLHda4lt-62">
          <mxGeometry width="50" height="50" relative="1" as="geometry">
            <mxPoint x="218.03999999999996" y="73.00700000000006" as="sourcePoint" />
            <mxPoint x="690" y="71" as="targetPoint" />
            <Array as="points">
              <mxPoint x="320" y="70" />
            </Array>
          </mxGeometry>
        </mxCell>
        <mxCell id="c4G1HvapONVKOLHda4lt-38" value="" style="endArrow=classic;html=1;rounded=0;exitX=1;exitY=0.5;exitDx=0;exitDy=0;entryX=0.5;entryY=0;entryDx=0;entryDy=0;" edge="1" parent="1" source="c4G1HvapONVKOLHda4lt-36" target="c4G1HvapONVKOLHda4lt-28">
          <mxGeometry width="50" height="50" relative="1" as="geometry">
            <mxPoint x="420" y="440" as="sourcePoint" />
            <mxPoint x="470" y="390" as="targetPoint" />
            <Array as="points">
              <mxPoint x="607" y="390" />
            </Array>
          </mxGeometry>
        </mxCell>
        <mxCell id="c4G1HvapONVKOLHda4lt-49" value="" style="endArrow=classic;html=1;rounded=0;exitX=0;exitY=0.5;exitDx=0;exitDy=0;entryX=0.5;entryY=1;entryDx=0;entryDy=0;" edge="1" parent="1" source="c4G1HvapONVKOLHda4lt-28" target="c4G1HvapONVKOLHda4lt-46">
          <mxGeometry width="50" height="50" relative="1" as="geometry">
            <mxPoint x="440" y="680" as="sourcePoint" />
            <mxPoint x="160" y="600" as="targetPoint" />
            <Array as="points">
              <mxPoint x="540" y="573" />
            </Array>
          </mxGeometry>
        </mxCell>
        <mxCell id="c4G1HvapONVKOLHda4lt-50" value="&lt;font style=&quot;font-size: 12px;&quot; face=&quot;Verdana&quot;&gt;&lt;b&gt;Profile not found&lt;/b&gt;&lt;/font&gt;" style="edgeLabel;html=1;align=center;verticalAlign=middle;resizable=0;points=[];" vertex="1" connectable="0" parent="c4G1HvapONVKOLHda4lt-49">
          <mxGeometry x="-0.2033" y="-1" relative="1" as="geometry">
            <mxPoint x="-18" y="-17" as="offset" />
          </mxGeometry>
        </mxCell>
        <mxCell id="c4G1HvapONVKOLHda4lt-52" style="edgeStyle=orthogonalEdgeStyle;rounded=0;orthogonalLoop=1;jettySize=auto;html=1;entryX=0.642;entryY=1.083;entryDx=0;entryDy=0;entryPerimeter=0;exitX=1;exitY=0.5;exitDx=0;exitDy=0;" edge="1" parent="1" source="c4G1HvapONVKOLHda4lt-28" target="c4G1HvapONVKOLHda4lt-39">
          <mxGeometry relative="1" as="geometry">
            <mxPoint x="671" y="562" as="sourcePoint" />
            <Array as="points">
              <mxPoint x="671" y="573" />
            </Array>
          </mxGeometry>
        </mxCell>
        <mxCell id="c4G1HvapONVKOLHda4lt-84" value="&lt;font style=&quot;font-size: 12px;&quot; face=&quot;Verdana&quot;&gt;&lt;b&gt;Profile found&lt;/b&gt;&lt;/font&gt;" style="edgeLabel;html=1;align=center;verticalAlign=middle;resizable=0;points=[];" vertex="1" connectable="0" parent="c4G1HvapONVKOLHda4lt-52">
          <mxGeometry x="-0.1691" y="2" relative="1" as="geometry">
            <mxPoint as="offset" />
          </mxGeometry>
        </mxCell>
        <mxCell id="c4G1HvapONVKOLHda4lt-54" value="" style="endArrow=classic;html=1;rounded=0;entryX=0;entryY=0.5;entryDx=0;entryDy=0;exitX=0.5;exitY=1;exitDx=0;exitDy=0;entryPerimeter=0;" edge="1" parent="1" source="c4G1HvapONVKOLHda4lt-18" target="c4G1HvapONVKOLHda4lt-57">
          <mxGeometry width="50" height="50" relative="1" as="geometry">
            <mxPoint x="150" y="620" as="sourcePoint" />
            <mxPoint x="260" y="625" as="targetPoint" />
            <Array as="points">
              <mxPoint x="180" y="595" />
            </Array>
          </mxGeometry>
        </mxCell>
        <mxCell id="c4G1HvapONVKOLHda4lt-55" value="" style="endArrow=classic;html=1;rounded=0;entryX=0.5;entryY=0;entryDx=0;entryDy=0;entryPerimeter=0;exitX=0.35;exitY=1;exitDx=0;exitDy=0;exitPerimeter=0;" edge="1" parent="1" source="c4G1HvapONVKOLHda4lt-32" target="c4G1HvapONVKOLHda4lt-57">
          <mxGeometry width="50" height="50" relative="1" as="geometry">
            <mxPoint x="285" y="550" as="sourcePoint" />
            <mxPoint x="285" y="600" as="targetPoint" />
          </mxGeometry>
        </mxCell>
        <mxCell id="c4G1HvapONVKOLHda4lt-56" value="" style="endArrow=classic;html=1;rounded=0;exitX=0.5;exitY=1;exitDx=0;exitDy=0;entryX=0.988;entryY=0.396;entryDx=0;entryDy=0;entryPerimeter=0;" edge="1" parent="1" source="c4G1HvapONVKOLHda4lt-33" target="c4G1HvapONVKOLHda4lt-57">
          <mxGeometry width="50" height="50" relative="1" as="geometry">
            <mxPoint x="400" y="650" as="sourcePoint" />
            <mxPoint x="310" y="625" as="targetPoint" />
            <Array as="points">
              <mxPoint x="420" y="589" />
            </Array>
          </mxGeometry>
        </mxCell>
        <mxCell id="c4G1HvapONVKOLHda4lt-64" value="" style="endArrow=classic;html=1;rounded=0;entryX=0.5;entryY=1;entryDx=0;entryDy=0;" edge="1" parent="1" source="c4G1HvapONVKOLHda4lt-62" target="c4G1HvapONVKOLHda4lt-59">
          <mxGeometry width="50" height="50" relative="1" as="geometry">
            <mxPoint x="750" y="590" as="sourcePoint" />
            <mxPoint x="790" y="580" as="targetPoint" />
          </mxGeometry>
        </mxCell>
        <mxCell id="c4G1HvapONVKOLHda4lt-73" value="&lt;font style=&quot;color: rgb(237, 125, 49);&quot;&gt;Manager&lt;/font&gt;" style="swimlane;html=1;startSize=20;horizontal=0;strokeColor=#ED7D31;strokeWidth=2;rotation=90;direction=east;flipV=0;flipH=1;" vertex="1" parent="1">
          <mxGeometry x="215.25" y="482.75" width="172.5" height="482" as="geometry" />
        </mxCell>
        <mxCell id="c4G1HvapONVKOLHda4lt-92" style="edgeStyle=orthogonalEdgeStyle;rounded=0;orthogonalLoop=1;jettySize=auto;html=1;" edge="1" parent="c4G1HvapONVKOLHda4lt-73" source="c4G1HvapONVKOLHda4lt-80" target="c4G1HvapONVKOLHda4lt-86">
          <mxGeometry relative="1" as="geometry" />
        </mxCell>
        <mxCell id="c4G1HvapONVKOLHda4lt-80" value="" style="ellipse;whiteSpace=wrap;html=1;fillColor=#008a00;fontColor=#ffffff;strokeColor=#005700;" vertex="1" parent="c4G1HvapONVKOLHda4lt-73">
          <mxGeometry x="35.5" y="264.5" width="40" height="40" as="geometry" />
        </mxCell>
        <mxCell id="c4G1HvapONVKOLHda4lt-94" style="edgeStyle=orthogonalEdgeStyle;rounded=0;orthogonalLoop=1;jettySize=auto;html=1;entryX=0;entryY=0.5;entryDx=0;entryDy=0;" edge="1" parent="c4G1HvapONVKOLHda4lt-73" source="c4G1HvapONVKOLHda4lt-86" target="c4G1HvapONVKOLHda4lt-93">
          <mxGeometry relative="1" as="geometry">
            <Array as="points">
              <mxPoint x="-83" y="184" />
            </Array>
          </mxGeometry>
        </mxCell>
        <mxCell id="c4G1HvapONVKOLHda4lt-86" value="&lt;font face=&quot;Verdana&quot;&gt;&lt;span style=&quot;font-size: 14px;&quot;&gt;Manage User&lt;/span&gt;&lt;/font&gt;" style="rounded=1;whiteSpace=wrap;html=1;fontFamily=Helvetica;fontSize=12;align=center;fillColor=#d80073;strokeColor=#A50040;fontColor=#ffffff;" vertex="1" parent="c4G1HvapONVKOLHda4lt-73">
          <mxGeometry x="-133" y="213.5" width="100" height="40" as="geometry" />
        </mxCell>
        <mxCell id="c4G1HvapONVKOLHda4lt-87" value="&lt;font style=&quot;color: rgb(0, 0, 0);&quot; face=&quot;Verdana&quot;&gt;&lt;span style=&quot;font-size: 14px;&quot;&gt;Appointment Report&lt;/span&gt;&lt;/font&gt;" style="rounded=1;whiteSpace=wrap;html=1;fontFamily=Helvetica;fontSize=12;align=center;fillColor=#dae8fc;strokeColor=#6c8ebf;gradientColor=#7ea6e0;" vertex="1" parent="c4G1HvapONVKOLHda4lt-73">
          <mxGeometry x="-23" y="213.5" width="158" height="40" as="geometry" />
        </mxCell>
        <mxCell id="c4G1HvapONVKOLHda4lt-95" style="edgeStyle=orthogonalEdgeStyle;rounded=0;orthogonalLoop=1;jettySize=auto;html=1;entryX=1;entryY=0.5;entryDx=0;entryDy=0;exitX=0.5;exitY=0;exitDx=0;exitDy=0;" edge="1" parent="c4G1HvapONVKOLHda4lt-73" source="c4G1HvapONVKOLHda4lt-88" target="c4G1HvapONVKOLHda4lt-93">
          <mxGeometry relative="1" as="geometry" />
        </mxCell>
        <mxCell id="c4G1HvapONVKOLHda4lt-88" value="&lt;font face=&quot;Verdana&quot;&gt;&lt;span style=&quot;font-size: 14px;&quot;&gt;Finance Report&lt;/span&gt;&lt;/font&gt;" style="rounded=1;whiteSpace=wrap;html=1;fontFamily=Helvetica;fontSize=12;align=center;fillColor=#ffcd28;strokeColor=#d79b00;gradientColor=#ffa500;" vertex="1" parent="c4G1HvapONVKOLHda4lt-73">
          <mxGeometry x="147" y="213.5" width="158" height="40" as="geometry" />
        </mxCell>
        <mxCell id="c4G1HvapONVKOLHda4lt-89" value="" style="endArrow=classic;html=1;rounded=0;entryX=0.5;entryY=1;entryDx=0;entryDy=0;" edge="1" parent="c4G1HvapONVKOLHda4lt-73" source="c4G1HvapONVKOLHda4lt-80" target="c4G1HvapONVKOLHda4lt-87">
          <mxGeometry width="50" height="50" relative="1" as="geometry">
            <mxPoint x="105.5" y="404.5" as="sourcePoint" />
            <mxPoint x="155.5" y="354.5" as="targetPoint" />
          </mxGeometry>
        </mxCell>
        <mxCell id="c4G1HvapONVKOLHda4lt-90" value="" style="endArrow=classic;html=1;rounded=0;entryX=0.465;entryY=1;entryDx=0;entryDy=0;entryPerimeter=0;exitX=1;exitY=0.5;exitDx=0;exitDy=0;" edge="1" parent="c4G1HvapONVKOLHda4lt-73" source="c4G1HvapONVKOLHda4lt-80" target="c4G1HvapONVKOLHda4lt-88">
          <mxGeometry width="50" height="50" relative="1" as="geometry">
            <mxPoint x="155.5" y="284.5" as="sourcePoint" />
            <mxPoint x="205.5" y="234.5" as="targetPoint" />
            <Array as="points">
              <mxPoint x="220.75" y="284.25" />
              <mxPoint x="220.5" y="254.5" />
            </Array>
          </mxGeometry>
        </mxCell>
        <mxCell id="c4G1HvapONVKOLHda4lt-93" value="" style="ellipse;whiteSpace=wrap;html=1;fillColor=#E51400;fontColor=#ffffff;strokeColor=#FF3333;strokeWidth=3;" vertex="1" parent="c4G1HvapONVKOLHda4lt-73">
          <mxGeometry x="36" y="164.25" width="40" height="40" as="geometry" />
        </mxCell>
        <mxCell id="c4G1HvapONVKOLHda4lt-96" value="" style="endArrow=classic;html=1;rounded=0;exitX=0.5;exitY=0;exitDx=0;exitDy=0;entryX=0.5;entryY=1;entryDx=0;entryDy=0;" edge="1" parent="c4G1HvapONVKOLHda4lt-73" source="c4G1HvapONVKOLHda4lt-87" target="c4G1HvapONVKOLHda4lt-93">
          <mxGeometry width="50" height="50" relative="1" as="geometry">
            <mxPoint x="245.75" y="234.25" as="sourcePoint" />
            <mxPoint x="295.75" y="184.25" as="targetPoint" />
          </mxGeometry>
        </mxCell>
        <mxCell id="c4G1HvapONVKOLHda4lt-97" value="&lt;font style=&quot;color: rgb(237, 125, 49);&quot;&gt;Finance&lt;/font&gt;" style="swimlane;html=1;startSize=20;horizontal=0;strokeColor=#ED7D31;strokeWidth=2;rotation=90;direction=east;flipV=0;flipH=1;" vertex="1" parent="1">
          <mxGeometry x="605" y="577" width="172.5" height="294" as="geometry" />
        </mxCell>
        <mxCell id="c4G1HvapONVKOLHda4lt-99" value="" style="ellipse;whiteSpace=wrap;html=1;fillColor=#008a00;fontColor=#ffffff;strokeColor=#005700;" vertex="1" parent="c4G1HvapONVKOLHda4lt-97">
          <mxGeometry x="-61.25" y="119.5" width="40" height="40" as="geometry" />
        </mxCell>
        <mxCell id="c4G1HvapONVKOLHda4lt-102" value="&lt;font style=&quot;color: rgb(0, 0, 0);&quot; face=&quot;Verdana&quot;&gt;&lt;span style=&quot;font-size: 14px;&quot;&gt;Finance Report&lt;/span&gt;&lt;/font&gt;" style="rounded=1;whiteSpace=wrap;html=1;fontFamily=Helvetica;fontSize=12;align=center;fillColor=#dae8fc;strokeColor=#6c8ebf;gradientColor=#7ea6e0;" vertex="1" parent="c4G1HvapONVKOLHda4lt-97">
          <mxGeometry x="-1.25" y="119.5" width="158" height="40" as="geometry" />
        </mxCell>
        <mxCell id="c4G1HvapONVKOLHda4lt-105" value="" style="endArrow=classic;html=1;rounded=0;entryX=0;entryY=0.5;entryDx=0;entryDy=0;" edge="1" parent="c4G1HvapONVKOLHda4lt-97" source="c4G1HvapONVKOLHda4lt-99" target="c4G1HvapONVKOLHda4lt-102">
          <mxGeometry width="50" height="50" relative="1" as="geometry">
            <mxPoint x="11.5" y="310.5" as="sourcePoint" />
            <mxPoint x="61.5" y="260.5" as="targetPoint" />
          </mxGeometry>
        </mxCell>
        <mxCell id="c4G1HvapONVKOLHda4lt-107" value="" style="ellipse;whiteSpace=wrap;html=1;fillColor=#E51400;fontColor=#ffffff;strokeColor=#FF3333;strokeWidth=3;" vertex="1" parent="c4G1HvapONVKOLHda4lt-97">
          <mxGeometry x="185.5" y="119.5" width="40" height="40" as="geometry" />
        </mxCell>
        <mxCell id="c4G1HvapONVKOLHda4lt-108" value="" style="endArrow=classic;html=1;rounded=0;entryX=0;entryY=0.5;entryDx=0;entryDy=0;" edge="1" parent="c4G1HvapONVKOLHda4lt-97" source="c4G1HvapONVKOLHda4lt-102" target="c4G1HvapONVKOLHda4lt-107">
          <mxGeometry width="50" height="50" relative="1" as="geometry">
            <mxPoint x="151.75" y="140.25" as="sourcePoint" />
            <mxPoint x="201.75" y="90.25" as="targetPoint" />
          </mxGeometry>
        </mxCell>
      </root>
    </mxGraphModel>
  </diagram>
</mxfile>
